<svg width="512" height="512" viewBox="0 0 512 512" xmlns="http://www.w3.org/2000/svg">
    <defs>
        <linearGradient id="networkGrad" x1="0%" y1="0%" x2="100%" y2="100%">
            <stop offset="0%" style="stop-color:#4c9ded;stop-opacity:1" />
            <stop offset="100%" style="stop-color:#3178b5;stop-opacity:1" />
        </linearGradient>
    </defs>
    <g>
        <!-- Base folder structure -->
        <path fill="url(#networkGrad)" d="M0 12C0 5.37 5.37 0 12 0h147v154c0 6.63 5.37 12 12 12h154v76H228.56c-17.67 0-33.91 9.71-42.28 25.26L129.2 373.41c-4.07 7.57-6.2 16.03-6.2 24.63V434H12c-6.63 0-12-5.37-12-12V12z"/>
        <path fill="url(#networkGrad)" d="M325 134v-6.6c0-3.18-1.26-6.23-3.5-8.48L206.37 3.52C204.12 1.27 201.06 0 197.87 0H191v134h134z"/>
        
        <!-- Network connectivity elements -->
        <path fill="url(#networkGrad)" d="M228.56 274c-5.89 0-11.3 3.23-14.09 8.42L172.21 361h320.43l-47.97-79.28c-2.9-4.79-8.09-7.72-13.69-7.72H228.56z"/>
        
        <!-- Bottom container -->
        <path fill="url(#networkGrad)" d="M155 409c0-8.84 7.16-16 16-16h325c8.84 0 16 7.16 16 16v87c0 8.84-7.16 16-16 16H171c-8.84 0-16-7.16-16-16v-87z"/>
        
        <!-- Network lines -->
        <path stroke="white" stroke-width="2" fill="none" d="M200 750 Q 300 770 400 750" opacity="0.3"/>
        <path stroke="white" stroke-width="2" fill="none" d="M200 770 Q 300 790 400 770" opacity="0.3"/>
        
        <!-- SMB2 text -->
        <text x="280" y="460" font-family="Arial" font-size="32" fill="white" text-anchor="middle">SMB2</text>
        
        <!-- Connection circles -->
        <circle cx="373" cy="453" r="24" fill="white" opacity="0.9"/>
        <circle cx="445" cy="453" r="24" fill="white" opacity="0.9"/>
    </g>
</svg>
